<svg preserveAspectRatio="none" overflow="visible" style="display: block;" width="718.44" height="744.424" viewBox="0 0 718.44 744.424" fill="none" xmlns="http://www.w3.org/2000/svg">
<g id="Group 3">
<g id="Group 15">
<g id="Vector">
<path d="M418.44 5.56982L400.12 14.5598L401.05 526.55L418.34 518.49L418.43 5.56982H418.44Z" fill="#360E04"/>
<path d="M418.44 5.56982L400.12 14.5598L401.05 526.55L418.34 518.49L418.43 5.56982H418.44Z" fill="url(#paint0_linear_0_13)" fill-opacity="0.3"/>
</g>
<g id="Vector_2">
<path d="M388.1 8.52979L400.13 14.4798L401.06 526.55L388.1 520.54L388.1 8.52979Z" fill="#360E04"/>
<path d="M388.1 8.52979L400.13 14.4798L401.06 526.55L388.1 520.54L388.1 8.52979Z" fill="url(#paint1_linear_0_13)" fill-opacity="0.6"/>
</g>
<path id="Vector_3" d="M406.4 0L388 8.49L400.12 14.32L418.44 5.57L406.4 0Z" fill="#97736C"/>
</g>
<g id="Group 16">
<g id="Vector_4">
<path d="M303 5.56982L321.32 14.5598L320.39 526.55L303.1 518.49L303.01 5.56982H303Z" fill="#360E04"/>
<path d="M303 5.56982L321.32 14.5598L320.39 526.55L303.1 518.49L303.01 5.56982H303Z" fill="url(#paint2_linear_0_13)" fill-opacity="0.2"/>
</g>
<g id="Vector_5">
<path d="M333.34 8.52979L321.31 14.4798L320.38 526.55L333.34 520.54L333.34 8.52979Z" fill="#360E04"/>
<path d="M333.34 8.52979L321.31 14.4798L320.38 526.55L333.34 520.54L333.34 8.52979Z" fill="url(#paint3_linear_0_13)" fill-opacity="0.5"/>
</g>
<path id="Vector_6" d="M315.04 0L333.44 8.49L321.32 14.32L303 5.57L315.04 0Z" fill="#97736C"/>
</g>
<path id="Vector_7" d="M400.079 50.6537L400.036 61.5472L19.0822 238.164L18.9953 227.149L400.079 50.6537Z" fill="#491A0B"/>
<path id="Vector_8" d="M400.08 50.6541L388.717 45.3984L30.4016 211.452V222.18L400.08 50.6541Z" fill="#86574B"/>
<path id="Vector_9" d="M18.9953 196.336L19.1082 185.407L400.948 362.432L400.783 373.3L18.9953 196.336Z" fill="#3B1005"/>
<path id="Vector_10" d="M18.5436 185.155L29.8976 182.054L388.604 348.159L388.977 357.003L18.5436 185.155Z" fill="#86574B"/>
<path id="Vector_11" d="M709 187.5V191.5L329.8 369.5L329.8 357.818L709 182V187.5Z" fill="#3B1005"/>
<path id="Vector_12" d="M709 182L694.1 177.5L329.8 347.5L329.8 358.68L709 182Z" fill="#86574B"/>
<g id="Group 18">
<path id="Vector_13" d="M665.417 197.222H651.518V578.584H665.417V197.222Z" fill="#491A0B"/>
<path id="Vector_14" d="M71.6734 207.854H57.7741V579.087H71.6734V207.854Z" fill="#561D0F"/>
<path id="Vector_15" d="M700.748 552.975L706.559 565.449L326.935 742.761L321.114 730.286L700.739 552.975H700.748Z" fill="#441205"/>
<path id="Vector_16" d="M230.605 487.958L7.6325 591.932L13.9362 605.45L236.909 501.477L230.605 487.958Z" fill="url(#paint4_linear_0_13)"/>
<path id="Vector_17" d="M24.0002 570.475L29.8205 558L402.852 731.95L397.031 744.424L24.0002 570.475Z" fill="#441205"/>
<path id="Vector_18" d="M321.3 60.7143L321.3 49L708.548 230.693V241.752L321.3 60.7143Z" fill="#491A0B"/>
<path id="Vector_19" d="M522.529 503.579L516.332 516.869L703.721 604.25L709.918 590.96L522.529 503.579Z" fill="url(#paint5_linear_0_13)"/>
</g>
<g id="Group 14">
<path id="Vector_20" d="M30.4403 113.57L12.1203 122.56L13.0503 634.55L30.3403 626.49L30.4303 113.57H30.4403Z" fill="#360E04"/>
<g id="Vector_21">
<path d="M0.100273 116.53L12.1303 122.48L13.0603 634.55L0.100273 628.54L0.100273 116.53Z" fill="#360E04"/>
<path d="M0.100273 116.53L12.1303 122.48L13.0603 634.55L0.100273 628.54L0.100273 116.53Z" fill="url(#paint6_linear_0_13)" fill-opacity="0.6"/>
</g>
<path id="Vector_22" d="M18.4002 108L0.000175476 116.49L12.1202 122.32L30.4402 113.57L18.4002 108Z" fill="#97736C"/>
</g>
<path id="Vector_23" d="M698.194 225.759V214.813L333.35 44.5L321.2 49L698.202 225.759H698.194Z" fill="#86574B"/>
<g id="Vector_24" filter="url(#filter0_d_0_13)">
<path d="M368 338H354V719.506L361 724L368 719.506V338Z" fill="#441205"/>
</g>
<g id="Group 10">
<g id="Vector_25">
<path d="M688 113.57L706.32 122.56L705.39 634.55L688.1 626.49L688.01 113.57H688Z" fill="#360E04"/>
<path d="M688 113.57L706.32 122.56L705.39 634.55L688.1 626.49L688.01 113.57H688Z" fill="url(#paint7_linear_0_13)" fill-opacity="0.4"/>
</g>
<path id="Vector_26" d="M718.34 116.53L706.31 122.48L705.38 634.55L718.34 628.54L718.34 116.53Z" fill="#360E04"/>
<path id="Vector_27" d="M700.04 108L718.44 116.49L706.32 122.32L688 113.57L700.04 108Z" fill="#97736C"/>
</g>
<g id="Group 12">
<g id="Vector_28">
<path d="M718.44 145.57L700.12 154.56L701.05 654.55L718.34 646.49L718.43 145.57H718.44Z" fill="#491A0B"/>
<path d="M718.44 145.57L700.12 154.56L701.05 654.55L718.34 646.49L718.43 145.57H718.44Z" fill="url(#paint8_linear_0_13)" fill-opacity="0.2"/>
</g>
<path id="Vector_29" d="M688.1 148.53L700.13 154.48L701.06 654.55L688.1 648.54L688.1 148.53Z" fill="#491A0B"/>
<path id="Vector_30" d="M706.4 140L688 148.49L700.12 154.32L718.44 145.57L706.4 140Z" fill="#97736C"/>
</g>
<g id="Group 13">
<g id="Vector_31">
<path d="M0 145.57L18.32 154.56L17.39 654.55L0.0999985 646.49L0.00999832 145.57H0Z" fill="#491A0B"/>
<path d="M0 145.57L18.32 154.56L17.39 654.55L0.0999985 646.49L0.00999832 145.57H0Z" fill="url(#paint9_linear_0_13)" fill-opacity="0.2"/>
</g>
<g id="Vector_32">
<path d="M30.34 148.53L18.31 154.48L17.38 654.55L30.34 648.54L30.34 148.53Z" fill="#491A0B"/>
<path d="M30.34 148.53L18.31 154.48L17.38 654.55L30.34 648.54L30.34 148.53Z" fill="url(#paint10_linear_0_13)" fill-opacity="0.2"/>
</g>
<path id="Vector_33" d="M12.0401 140L30.4401 148.49L18.3201 154.32L0.000116348 145.57L12.0401 140Z" fill="#97736C"/>
</g>
</g>
<defs>
<filter id="filter0_d_0_13" x="352" y="338" width="18" height="390" filterUnits="userSpaceOnUse" color-interpolation-filters="sRGB">
<feFlood flood-opacity="0" result="BackgroundImageFix"/>
<feColorMatrix in="SourceAlpha" type="matrix" values="0 0 0 0 0 0 0 0 0 0 0 0 0 0 0 0 0 0 127 0" result="hardAlpha"/>
<feOffset dy="2"/>
<feGaussianBlur stdDeviation="1"/>
<feComposite in2="hardAlpha" operator="out"/>
<feColorMatrix type="matrix" values="0 0 0 0 0 0 0 0 0 0 0 0 0 0 0 0 0 0 0.25 0"/>
<feBlend mode="normal" in2="BackgroundImageFix" result="effect1_dropShadow_0_13"/>
<feBlend mode="normal" in="SourceGraphic" in2="effect1_dropShadow_0_13" result="shape"/>
</filter>
<linearGradient id="paint0_linear_0_13" x1="434.94" y1="181.554" x2="384.656" y2="273.726" gradientUnits="userSpaceOnUse">
<stop stop-color="#2D0000"/>
<stop offset="1" stop-color="#666666" stop-opacity="0.2"/>
</linearGradient>
<linearGradient id="paint1_linear_0_13" x1="412.732" y1="183.514" x2="355.307" y2="258.406" gradientUnits="userSpaceOnUse">
<stop stop-color="#2D0000"/>
<stop offset="1" stop-color="#666666" stop-opacity="0.2"/>
</linearGradient>
<linearGradient id="paint2_linear_0_13" x1="286.501" y1="181.554" x2="336.784" y2="273.726" gradientUnits="userSpaceOnUse">
<stop stop-color="#2D0000"/>
<stop offset="1" stop-color="#666666" stop-opacity="0.2"/>
</linearGradient>
<linearGradient id="paint3_linear_0_13" x1="308.708" y1="183.514" x2="366.133" y2="258.406" gradientUnits="userSpaceOnUse">
<stop stop-color="#2D0000"/>
<stop offset="1" stop-color="#666666" stop-opacity="0.2"/>
</linearGradient>
<linearGradient id="paint4_linear_0_13" x1="10.7843" y1="598.691" x2="233.757" y2="494.718" gradientUnits="userSpaceOnUse">
<stop stop-color="#3B1005"/>
<stop offset="0.711538" stop-color="#561D0F" stop-opacity="0"/>
</linearGradient>
<linearGradient id="paint5_linear_0_13" x1="689.5" y1="590" x2="523" y2="511.5" gradientUnits="userSpaceOnUse">
<stop stop-color="#3B1005"/>
<stop offset="0.793269" stop-color="#491A0B" stop-opacity="0"/>
</linearGradient>
<linearGradient id="paint6_linear_0_13" x1="24.7323" y1="291.514" x2="-32.6929" y2="366.406" gradientUnits="userSpaceOnUse">
<stop stop-color="#2D0000"/>
<stop offset="1" stop-color="#666666" stop-opacity="0.2"/>
</linearGradient>
<linearGradient id="paint7_linear_0_13" x1="671.501" y1="289.554" x2="721.784" y2="381.726" gradientUnits="userSpaceOnUse">
<stop stop-color="#2D0000"/>
<stop offset="1" stop-color="#666666" stop-opacity="0.2"/>
</linearGradient>
<linearGradient id="paint8_linear_0_13" x1="734.94" y1="317.5" x2="686.44" y2="408.5" gradientUnits="userSpaceOnUse">
<stop stop-color="#2D0000"/>
<stop offset="1" stop-color="#666666" stop-opacity="0.2"/>
</linearGradient>
<linearGradient id="paint9_linear_0_13" x1="-16.4993" y1="317.5" x2="32.0007" y2="408.5" gradientUnits="userSpaceOnUse">
<stop stop-color="#2D0000"/>
<stop offset="1" stop-color="#666666" stop-opacity="0.2"/>
</linearGradient>
<linearGradient id="paint10_linear_0_13" x1="5.708" y1="319.46" x2="61.4486" y2="393.879" gradientUnits="userSpaceOnUse">
<stop stop-color="#2D0000"/>
<stop offset="1" stop-color="#666666" stop-opacity="0.2"/>
</linearGradient>
</defs>
</svg>
